<?xml version="1.0" encoding="UTF-8" standalone="no"?>
<!-- Created with Inkscape (http://www.inkscape.org/) -->

<svg
   xmlns:dc="http://purl.org/dc/elements/1.1/"
   xmlns:cc="http://creativecommons.org/ns#"
   xmlns:rdf="http://www.w3.org/1999/02/22-rdf-syntax-ns#"
   xmlns:svg="http://www.w3.org/2000/svg"
   xmlns="http://www.w3.org/2000/svg"
   xmlns:sodipodi="http://sodipodi.sourceforge.net/DTD/sodipodi-0.dtd"
   xmlns:inkscape="http://www.inkscape.org/namespaces/inkscape"
   width="35"
   height="20"
   id="svg2"
   version="1.1"
   inkscape:version="0.48.4 r9939"
   sodipodi:docname="reload.svg">
  <defs
     id="defs4" />
  <sodipodi:namedview
     id="base"
     pagecolor="#222222"
     bordercolor="#666666"
     borderopacity="1.0"
     inkscape:pageopacity="1"
     inkscape:pageshadow="2"
     inkscape:zoom="11.313709"
     inkscape:cx="18.944729"
     inkscape:cy="23.802423"
     inkscape:document-units="px"
     inkscape:current-layer="layer1"
     showgrid="false"
     inkscape:window-width="1280"
     inkscape:window-height="1002"
     inkscape:window-x="-8"
     inkscape:window-y="-8"
     inkscape:window-maximized="1"
     showguides="true"
     inkscape:guide-bbox="true" />
  <metadata
     id="metadata7">
    <rdf:RDF>
      <cc:Work
         rdf:about="">
        <dc:format>image/svg+xml</dc:format>
        <dc:type
           rdf:resource="http://purl.org/dc/dcmitype/StillImage" />
        <dc:title />
      </cc:Work>
    </rdf:RDF>
  </metadata>
  <g
     inkscape:label="Calque 1"
     inkscape:groupmode="layer"
     id="layer1"
     transform="translate(0,-1032.3622)">
    <path
       style="fill:#ffffff;fill-opacity:1;stroke:#ffffff;stroke-opacity:1;stroke-width:1;stroke-miterlimit:4;stroke-dasharray:none"
       d="M 17.59375 2.34375 C 16.116845 2.3356788 14.608713 2.7771986 13.28125 3.65625 C 9.7413493 6.000387 8.768671 10.738879 11.09375 14.25 C 13.418829 17.761121 18.178849 18.687887 21.71875 16.34375 L 20.8125 14.96875 C 19.866785 15.598037 18.721122 15.96875 17.5 15.96875 C 14.20355 15.96875 11.53125 13.29645 11.53125 10 C 11.53125 6.7035504 14.20355 4.03125 17.5 4.03125 C 20.662352 4.03125 23.23218 6.4833644 23.4375 9.59375 L 25.15625 9.46875 C 25.072335 8.1444711 24.637405 6.8541235 23.90625 5.75 C 22.453076 3.5555494 20.055258 2.357202 17.59375 2.34375 z "
       transform="translate(0,1032.3622)"
       id="path3010" />
    <rect
       style="fill:#ffffff;fill-opacity:1;stroke:none"
       id="rect3825"
       width="5.5582952"
       height="2.1624053"
       x="-840.09747"
       y="619.33356"
       transform="matrix(0.57564209,-0.81770177,0.81770177,0.57564209,0,0)" />
    <rect
       style="fill:#ffffff;fill-opacity:1;stroke:none"
       id="rect3825-0"
       width="5.5582952"
       height="2.1624053"
       x="-621.50867"
       y="837.94385"
       transform="matrix(-0.81770177,-0.57564209,-0.57564209,0.81770177,0,0)" />
  </g>
</svg>
