<?xml version="1.0" encoding="UTF-8" standalone="no"?>
<!-- Created with Inkscape (http://www.inkscape.org/) -->

<svg
   xmlns:dc="http://purl.org/dc/elements/1.1/"
   xmlns:cc="http://creativecommons.org/ns#"
   xmlns:rdf="http://www.w3.org/1999/02/22-rdf-syntax-ns#"
   xmlns:svg="http://www.w3.org/2000/svg"
   xmlns="http://www.w3.org/2000/svg"
   xmlns:sodipodi="http://sodipodi.sourceforge.net/DTD/sodipodi-0.dtd"
   xmlns:inkscape="http://www.inkscape.org/namespaces/inkscape"
   width="139.47026"
   height="167.31567"
   id="svg2"
   version="1.1"
   inkscape:version="0.48.4 r9939"
   sodipodi:docname="srtlogo.svg">
  <defs
     id="defs4" />
  <sodipodi:namedview
     id="base"
     pagecolor="#ffffff"
     bordercolor="#666666"
     borderopacity="1.0"
     inkscape:pageopacity="0.0"
     inkscape:pageshadow="2"
     inkscape:zoom="2"
     inkscape:cx="159.91181"
     inkscape:cy="68.511192"
     inkscape:document-units="px"
     inkscape:current-layer="layer1"
     showgrid="false"
     fit-margin-top="0"
     fit-margin-left="0"
     fit-margin-right="0"
     fit-margin-bottom="0"
     inkscape:window-width="1366"
     inkscape:window-height="706"
     inkscape:window-x="1272"
     inkscape:window-y="403"
     inkscape:window-maximized="1"
     inkscape:snap-page="true"
     showguides="true"
     inkscape:guide-bbox="true">
    <sodipodi:guide
       orientation="1,0"
       position="-5.6843419e-014,85.999997"
       id="guide3865" />
    <sodipodi:guide
       orientation="1,0"
       position="139.46396,108.40838"
       id="guide3867" />
    <sodipodi:guide
       orientation="0,1"
       position="-5.6843419e-014,167.31728"
       id="guide3869" />
    <sodipodi:guide
       orientation="0,1"
       position="139.46396,14.279166"
       id="guide3871" />
    <sodipodi:guide
       orientation="1,0"
       position="115.21875,167.31728"
       id="guide3912" />
    <sodipodi:guide
       orientation="0.70710678,0.70710678"
       position="115.21875,143.07422"
       id="guide3918" />
  </sodipodi:namedview>
  <metadata
     id="metadata7">
    <rdf:RDF>
      <cc:Work
         rdf:about="">
        <dc:format>image/svg+xml</dc:format>
        <dc:type
           rdf:resource="http://purl.org/dc/dcmitype/StillImage" />
        <dc:title></dc:title>
      </cc:Work>
    </rdf:RDF>
  </metadata>
  <g
     inkscape:label="Calque 1"
     inkscape:groupmode="layer"
     id="layer1"
     transform="translate(-435.41439,-116.93014)">
    <g
       id="g4011"
       style="fill:#cccccc">
      <rect
         y="141.1716"
         x="435.4144"
         height="143.07422"
         width="139.46396"
         id="rect3986"
         style="fill:#cccccc;fill-opacity:1;stroke:none" />
      <path
         sodipodi:nodetypes="ccccc"
         inkscape:connector-curvature="0"
         id="path3942"
         d="m 550.63944,116.93014 24.24521,24.24305 -139.47026,57.07263 0.006,-81.31568 z"
         style="fill:#cccccc;fill-opacity:1;stroke:none" />
    </g>
    <g
       id="g3088"
       style="fill:#1a1a1a;fill-opacity:1"
       transform="matrix(0.85655878,0,0,0.85655878,72.368471,35.580435)">
      <g
         transform="translate(-261.42857,-31.071429)"
         style="fill:#1a1a1a;fill-opacity:1"
         id="g3078">
        <path
           inkscape:connector-curvature="0"
           style="fill:#1a1a1a;fill-opacity:1"
           d="m 767.57144,221.86218 -5.93739,-6 6.49619,0 c 6.28014,0 10.9412,-1.7282 10.9412,-4.0567 0,-0.51882 -3.19038,-0.9433 -7.08974,-0.9433 l -7.08975,0 -5.60987,5 c -5.32192,4.74335 -5.89477,4.99821 -11.16026,4.96517 l -5.55038,-0.0348 6.33891,-6.02373 c 3.4864,-3.31305 7.50204,-6.46595 8.92365,-7.00644 2.64727,-1.0065 27.93575,-1.17809 31.98744,-0.21705 3.09252,0.73353 2.82198,2.37283 -1,6.05937 -3.59942,3.47187 -7.51313,5.2575 -11.52331,5.2575 -2.59476,0 -2.56233,0.0823 1.77331,4.5 l 4.41642,4.5 -4.98952,0 c -4.77191,0 -5.24844,-0.26166 -10.9269,-6 z"
           id="path3036" />
        <path
           inkscape:connector-curvature="0"
           style="fill:#1a1a1a;fill-opacity:1"
           d="m 697.07144,219.36218 c 0.9785,-1.17902 3.94701,-1.51884 13.87245,-1.58803 l 12.62755,-0.088 -6.78553,-1.74751 c -3.73204,-0.96113 -7.32193,-2.2839 -7.97753,-2.9395 -1.60216,-1.60216 0.16365,-4.37076 3.3577,-5.26452 3.8704,-1.083 37.90536,-1.00005 37.90536,0.0924 0,2.089 -4.31444,3.03899 -14.18426,3.12321 l -10.31574,0.088 6.84888,1.76295 c 7.61943,1.9613 9.40133,3.57454 6.94554,6.28816 -1.43869,1.58976 -3.76993,1.77286 -22.57185,1.77286 -18.52436,0 -20.82241,-0.17478 -19.72257,-1.5 z"
           id="path3032" />
        <path
           inkscape:connector-curvature="0"
           style="fill:#1a1a1a;fill-opacity:1"
           d="m 801.07144,220.27459 c 0,-0.32318 2.1375,-2.55531 4.75,-4.9603 l 4.75,-4.3727 -7.87244,-0.0397 c -6.88183,-0.0347 -7.7158,-0.22846 -6.62756,-1.53971 1.03063,-1.24184 4.68706,-1.5 21.24489,-1.5 17.66439,0 19.85462,0.17517 18.75511,1.5 -0.87871,1.05878 -3.20541,1.5 -7.91004,1.5 l -6.66514,0 -4.92482,5 c -4.67726,4.74867 -5.19061,5 -10.21241,5 -2.90817,0 -5.28759,-0.26442 -5.28759,-0.58759 z"
           id="path3030" />
      </g>
      <path
         inkscape:connector-curvature="0"
         id="text3083"
         d="m 460.9467,198.23576 c -1.22051,0.0404 -3.47614,-0.57913 -1.83233,-1.34899 0.51544,0.21814 3.56057,0.85984 2.58515,-0.41204 -1.19379,-0.45359 -3.10664,-0.64411 -3.08155,-1.84343 0.11217,-1.62817 3.44742,-1.86396 4.78735,-0.80765 -0.63163,1.24609 -2.00459,-0.17062 -3.11266,0.56178 0.004,0.98964 2.28689,0.74109 2.9449,1.50974 1.18297,1.13389 -0.50096,2.45817 -2.29086,2.34059 z m 6.65761,0 c -2.04937,0.14757 -3.09804,-1.35804 -2.82721,-2.57728 0,-0.79609 0,-1.59217 0,-2.38826 0.51596,0.11457 1.77042,-0.28073 1.60318,0.30553 0.0643,1.08475 -0.15746,2.19285 0.17664,3.25694 1.1206,1.19719 2.804,-0.20727 2.2929,-1.21469 0,-0.78259 0,-1.56519 0,-2.34778 0.56042,0.0943 1.79058,-0.27371 1.53804,0.38192 -0.11467,1.29113 0.34242,2.67933 -0.54323,3.87216 -0.47713,0.51349 -1.39198,0.72366 -2.24032,0.71146 z m 4.40887,-4.96554 c 1.5264,0.0809 3.25864,-0.2512 4.57626,0.41887 1.29434,0.58028 -0.40006,1.7454 -0.22192,1.93407 1.96319,0.58717 0.7638,2.6137 -1.17792,2.5014 -1.0569,0.0435 -2.11776,0.0119 -3.17642,0.0215 0,-1.62528 0,-3.25056 0,-4.87585 z m 2.33964,1.95193 c 2.0635,-0.0992 0.67138,-1.47441 -0.74737,-1.09932 0.1665,0.35333 -0.40775,1.21809 0.44253,1.09932 0.10161,0 0.20323,0 0.30484,0 z m 0.15172,2.0713 c 2.19025,0.0272 1.0259,-1.69482 -0.66381,-1.25633 -0.54067,0.0882 -0.0854,0.86412 -0.23528,1.22214 0.18307,0.0797 0.62906,0.0112 0.89909,0.0342 z m 5.4425,-3.09598 c -0.60571,-0.0535 -1.51924,0.1055 -1.939,-0.0764 -0.01,-0.46871 -0.21635,-1.07307 0.77444,-0.85086 1.56881,0 3.13761,0 4.70642,0 -0.0717,0.41236 0.32827,1.15035 -0.66382,0.92725 -0.6837,-3.5e-4 -1.59472,-0.15763 -1.2752,0.53468 0,1.13797 0,2.27595 0,3.41392 -0.51583,-0.11458 -1.77022,0.28075 -1.60284,-0.30554 0,-1.21435 0,-2.42871 0,-3.64306 z m 4.65349,-0.92725 c 0.51176,0.11495 1.76427,-0.28151 1.59226,0.30553 0,1.52345 0,3.04688 0,4.57032 -0.51176,-0.11496 -1.76426,0.28151 -1.59226,-0.30554 0,-1.52343 0,-3.04687 0,-4.57031 z m 4.63366,0.92725 c -0.60572,-0.0535 -1.51926,0.1055 -1.93901,-0.0764 -0.01,-0.46871 -0.21635,-1.07307 0.77444,-0.85086 1.56881,0 3.13761,0 4.70641,0 -0.0717,0.41236 0.32828,1.15035 -0.6638,0.92725 -0.68372,-3.5e-4 -1.59474,-0.15763 -1.2752,0.53468 0,1.13797 0,2.27595 0,3.41392 -0.51583,-0.11458 -1.77023,0.28075 -1.60284,-0.30554 0,-1.21435 0,-2.42871 0,-3.64306 z m 4.65348,-0.92725 c 0.51177,0.11495 1.76427,-0.28151 1.59227,0.30553 0,1.21436 0,2.42872 0,3.64308 0.93148,0 1.86297,0 2.79447,0 -0.0717,0.41236 0.32827,1.15035 -0.66382,0.92724 -1.24097,0 -2.48194,0 -3.72292,0 0,-1.62528 0,-3.25056 0,-4.87585 z m 5.60613,0 c 1.47304,0 2.94609,0 4.41913,0 -0.0717,0.41236 0.32828,1.15035 -0.66381,0.92725 -0.72102,0 -1.44204,0 -2.16306,0 0.0816,0.42299 -0.33974,1.19326 0.66382,0.97973 0.52641,0.1136 1.74562,-0.25112 1.74094,0.22915 0.19967,0.59728 -0.12733,0.83092 -0.99572,0.69079 -0.61077,0.0554 -1.7199,-0.23336 -1.40904,0.4583 -0.24842,0.64726 0.27479,0.76177 1.10635,0.66339 0.54619,0.0947 1.64851,-0.19449 1.82895,0.15276 0.10318,0.53311 0.0634,0.96751 -0.88509,0.77448 -1.21415,0 -2.42831,0 -3.64247,0 0,-1.62528 0,-3.25056 0,-4.87585 z"
         style="font-size:16.54036331px;font-style:normal;font-weight:normal;line-height:125%;letter-spacing:0px;word-spacing:0px;fill:#1a1a1a;fill-opacity:1;stroke:none;font-family:Sans" />
    </g>
    <path
       style="fill:#ffffff;fill-opacity:0.28440366;stroke:none"
       d="m 550.63686,116.93333 0,24.24305 24.24521,0 z"
       id="path3916"
       inkscape:connector-curvature="0" />
    <path
       style="fill:#000000;fill-opacity:0.2126697;stroke:none"
       d="m 550.63686,141.17638 24.24521,0 0,24.24521 z"
       id="path3920"
       inkscape:connector-curvature="0" />
  </g>
</svg>
